<?xml version="1.0" encoding="utf-8"?>
<!-- Generator: Adobe Illustrator 19.0.0, SVG Export Plug-In . SVG Version: 6.00 Build 0)  -->
<svg version="1.1" id="Layer_1" xmlns="http://www.w3.org/2000/svg" xmlns:xlink="http://www.w3.org/1999/xlink" x="0px" y="0px"
	 viewBox="0 0 200 40" style="enable-background:new 0 0 200 40;" xml:space="preserve">
<style type="text/css">
	.st0{fill:#106188;}
</style>
<path id="XMLID_1_" class="st0" d="M27.3,23.9c3.8-4.9,5.1-7.1,6.5-9.8c0.7-1.3,0.5-1.7,0.1-1.7c-0.5,0-1,0.5-1.2,0.8l-9.6,10.4
	l-6,8.1c-0.7,0.9-1.7,2.4-3,2.4c-1.7,0-2.5-3.2-2.9-4.4l8.4-10.6c4.2-7.5,3.5-8.3,2.8-8.3c-0.3,0-0.9,0.3-1.2,0.5
	c-12.3,5.8-10.4,5.8-12.4,5.8c-0.6,0-1.2-0.5-1-1.5c0.4-2.2,0.7-4.4,1-4.7c0.4-0.5,0.1-0.4,3.7-2.9c0.2-0.2,0.7-0.6,1-0.6
	c0.2,0,0.5,0.2,0.5,0.4c0,0.2-0.6,1-2.1,2.3l0.1,0.1l4.5-2.1c0.5-0.2,6.1-2.9,7.6-2.8c1,0,1.1,0.6,1.5,1.3l1,1.7
	c0.3,0.5,0.5,0.9,0.5,1.5c0,1.3-2,5.5-2.5,7l0.1,0.1l6.4-6.2c1.5-1.4,4.9-4.4,6.5-4.4c0.9,0,2.9,0.7,2.9,2.8c0,3-4.3,8.9-6,11.4
	l0.1,0.1c4.9-4.2,9.5-8.6,14.8-12.8c0.5-0.4,1.3-1.3,2-1.3c1.1,0,2.8,2.6,2.8,3.4c0,0.8-1.2,2.2-1.7,2.8l-6.2,7.6
	c-1.8,2.2-4.6,6-4.6,9.1c0,0.8,0.4,2,1.4,2c1.1,0,4.2-1.8,9.6-7l0.2,1.5c-1,2.8-9.6,9.6-13,9.6c-2.6,0-3.5-2.5-3.5-4.8
	c0-4.8,5.1-10.8,7.9-14.4l-0.1-0.1c-6.8,5.8-9,7.6-15.3,15.5c-0.6,0.8-2.5,3-3.5,3c-1.6,0-2.1-2.9-2.1-4c0-1.1,1-2.3,1.6-3.2
	L27.3,23.9z M62.9,28.5c-1.8,2.2-5.3,5.8-8.4,5.8c-2.4,0-3.4-2.7-3.4-4.8c0-4.9,5-9.6,7.4-9.6c0.7,0,1.8,0.2,1.8,1.1
	c0,2-4,5.6-5.6,6.7c-0.3,1.6,0.3,2.5,2.1,2.5c2.1,0,4.2-2.1,5.8-3.3L62.9,28.5z M59.1,17.4c0-1.6,1.9-3.1,3.5-3.1
	c0.7,0,1.3,0.5,1.3,1.2c0,1.6-1.5,3.6-3.2,3.6C59.7,19.1,59.1,18.4,59.1,17.4z M81.5,25.8l0.3,1.8c-2.1,1.9-6.2,6.8-9.2,6.8
	c-1.5,0-2.2-1.3-2.2-2.6c0-2.4,2.2-5,3.4-6.9l-0.1-0.1c-2.3,1.7-4.4,3.8-6.2,6.1c-0.6,0.8-2.1,2.7-3.2,2.7c-1.8,0-2.2-2.5-2.2-3.9
	c-0.1-2.8,2.4-6.8,4.7-8.8c0.5-0.4,0.9-0.5,1.6-0.5c2.4,0.1,2.2,0.6,2.2,0.9c0,1.6-5,5.6-5,6.6c0,0.2,0.2,0.4,0.4,0.4
	c0.3,0,0.6-0.4,0.8-0.6c3.2-4.1,10.6-9,11.7-9c0.2,0,0.4,0.2,0.6,0.8c0.2,0.6,0.5,1.3,0.6,2.2c0,1.6-4.9,4.6-4.9,7.4
	c0,0.4,0.3,0.7,0.7,0.7c1,0,2.7-1.4,3.4-2L81.5,25.8z M92.4,28.5c-1.8,2.2-5.3,5.8-8.4,5.8c-2.4,0-3.4-2.7-3.4-4.8
	c0-4.9,5-9.6,7.4-9.6c0.7,0,1.8,0.2,1.8,1.1c0,2-4,5.6-5.6,6.7c-0.3,1.6,0.3,2.5,2.1,2.5c2.1,0,4.2-2.1,5.8-3.3L92.4,28.5z
	 M88.6,17.4c0-1.6,1.9-3.1,3.5-3.1c0.7,0,1.3,0.5,1.3,1.2c0,1.6-1.5,3.6-3.2,3.6C89.2,19.1,88.6,18.4,88.6,17.4z M113.9,29.5
	c0,0.4,0.3,0.6,0.7,0.6c0.7,0,1.2-0.4,3.5-2.2l0.7,1c-1.9,1.9-5.3,5.2-8.2,5.2c-1.4,0-2-1.1-2-2.4c0-0.3-0.6-0.3,2.9-6.8l-8.7,0.3
	l-8.2,8.2c-1,1-2.5,2.6-3.9,2.6c-0.6,0-1.4-0.1-1.4-0.9c0-1.3,3.1-5.2,6.8-6.5l3.1-3.4c-2.6,0.1-3.9,0.2-3.9-0.8
	c0-0.8,2.9-4.1,5-4.8c1.6-0.5,3.7-0.8,3.7-0.3c0,0.7-2.9,0.4-2.9,1.1c0,0.3,0.4,0.4,0.6,0.4c0.6,0,2.3-0.1,2.4-0.1l9-7.4
	c3.9-3.2,8.7-6.9,10.5-6.9c0.8,0,1.4,1,1.4,1.7c0,0.8-0.8,2.2-1.2,2.9l-5,8.7c3,0,1.2-0.4,3.7,0.2c-1.2,1.4-2.1,3-3,4.6l-3.2,0.2
	L113.9,29.5z M120,10.7L120,10.7l-11.6,9.5l0.1,0.1l6.1-0.4L120,10.7z M137.3,26.9l0.4,1.5c-2.4,2.4-6.8,6.1-10,5.9
	c-2.7-0.1-5.6-1.6-6.4-4.6c-0.2,0.2-0.5,0.5-0.9,0.5c-0.4,0-0.7-0.4-0.7-0.8c0-0.5,0.6-1.1,1-1.4l8.7-8c0.1-1.3,0.8-2.6,2.3-2.6
	c1.2,0,1.4,0.4,1.6,1.5c0.2,1.5,0.8,2.9,0.8,4.6c0,3.3-2.6,5.7-5.2,7.3c2.6,0.4,4.1-0.8,6.1-2.2L137.3,26.9z M123.8,27.7
	c1.5,0.1,2.4,1.3,3.1,2.4c2.4-1.5,3-2.2,3.2-4.5c-0.1-0.8-0.3-1.9-0.5-3.3L123.8,27.7z M151.7,26.9l0.4,1.5c-2.4,2.4-6.8,6.1-10,5.9
	c-2.7-0.1-5.6-1.6-6.4-4.6c-0.2,0.2-0.5,0.5-0.9,0.5c-0.4,0-0.7-0.4-0.7-0.8c0-0.5,0.6-1.1,1-1.4l8.7-8c0.1-1.3,0.8-2.6,2.3-2.6
	c1.2,0,1.4,0.4,1.6,1.5c0.2,1.5,0.8,2.9,0.8,4.6c0,3.3-2.6,5.7-5.2,7.3c2.6,0.4,4.1-0.8,6.1-2.2L151.7,26.9z M138.1,27.7
	c1.5,0.1,2.4,1.3,3.1,2.4c2.4-1.5,3-2.2,3.2-4.5c-0.1-0.8-0.3-1.9-0.5-3.3L138.1,27.7z M167,27.8c-2.4,2.8-6.8,6.6-10.8,6.6
	c-2.9,0-4.3-2.6-4.4-5.2c-0.2-5.2,5.6-10.6,10.8-10.6c1.3,0,2.9,0.3,2.9,1.9c0,2-2,4.9-9.6,7.4l-0.1,0.9c-0.1,1.5,1.2,2,2.5,2
	c2.8,0,6.2-2.9,8.3-4.6L167,27.8z M162,21.3c0-0.3-0.2-0.5-0.5-0.4c-2,0.5-4.3,2.4-5.4,5.1C159.7,24.8,162.1,22,162,21.3z
	 M180.3,17.1c-1.9,3.8-2.2,5.3-6.6,5c-1.4,1.8-3.6,5-3.6,7.4c0,0.9,0.3,1.4,1.2,1.4c1.3,0,2.7-1.2,6.9-4.2l0.2,1.8
	c-2.4,2.2-6.7,6.4-10.1,6.4c-1.6,0-2.5-1.1-2.5-2.7c0-1.3,0.5-2.8,1-4l-0.1-0.1l-2,1.6l-0.4-1.5c2.4-1.8,4.6-3.9,6.1-6.4
	c-2.4,0-1.7-0.2-3.8,0.2l0.4-0.7c2.2-3.5,2.5-4.2,6.8-4.3c1.2-1.6,2.1-3.5,4.4-3.5c0.5,0,1.3,0.1,1.3,0.8c0,0.7-1.2,2-1.6,2.6
	L180.3,17.1z M192,26.9l0.4,1.5c-2.4,2.4-6.8,6.1-10,5.9c-2.7-0.1-5.6-1.6-6.4-4.6c-0.2,0.2-0.5,0.5-0.9,0.5c-0.4,0-0.7-0.4-0.7-0.8
	c0-0.5,0.6-1.1,1-1.4l8.7-8c0.1-1.3,0.8-2.6,2.3-2.6c1.2,0,1.4,0.4,1.6,1.5c0.2,1.5,0.8,2.9,0.8,4.6c0,3.3-2.6,5.7-5.2,7.3
	c2.6,0.4,4.1-0.8,6.1-2.2L192,26.9z M178.4,27.7c1.5,0.1,2.4,1.3,3.1,2.4c2.4-1.5,3-2.2,3.2-4.5c-0.1-0.8-0.3-1.9-0.5-3.3
	L178.4,27.7z"/>
</svg>
